# xmcd
#
# Track frame offsets: 
#        150
#        20767
#        42432
#
# Disc length: 822 seconds
#
# Revision: 2
# Processed by: cddbd v1.5.2PL0 Copyright (c) Steve Scherf et al.
# Submitted via: ExactAudioCopyFreeDBPlugin 1.0
#
DISCID=21033403
DTITLE=Eric Clapton - Layla (Acoustic)
DYEAR=1992
DGENRE=Oldies
TTITLE0=Layla [Acoustic]
TTITLE1=Tears In Heaven (Acoustic)
TTITLE2=Excerpts From MTV "Unplugged" Interview
EXTD=
EXTT0=
EXTT1=
EXTT2=
PLAYORDER=
